<svg width="48" height="48" viewBox="0 0 48 48" fill="none" xmlns="http://www.w3.org/2000/svg">
<mask id="mask0_4_9" style="mask-type:alpha" maskUnits="userSpaceOnUse" x="0" y="0" width="48" height="48">
<rect width="48" height="48" fill="#D9D9D9"/>
</mask>
<g mask="url(#mask0_4_9)">
<path d="M28 19.8V16.4C29.1 15.9333 30.225 15.5833 31.375 15.35C32.525 15.1167 33.7333 15 35 15C35.8667 15 36.7167 15.0667 37.55 15.2C38.3833 15.3333 39.2 15.5 40 15.7V18.9C39.2 18.6 38.3917 18.375 37.575 18.225C36.7583 18.075 35.9 18 35 18C33.7333 18 32.5167 18.1583 31.35 18.475C30.1833 18.7917 29.0667 19.2333 28 19.8ZM28 30.8V27.4C29.1 26.9333 30.225 26.5833 31.375 26.35C32.525 26.1167 33.7333 26 35 26C35.8667 26 36.7167 26.0667 37.55 26.2C38.3833 26.3333 39.2 26.5 40 26.7V29.9C39.2 29.6 38.3917 29.375 37.575 29.225C36.7583 29.075 35.9 29 35 29C33.7333 29 32.5167 29.15 31.35 29.45C30.1833 29.75 29.0667 30.2 28 30.8ZM28 25.3V21.9C29.1 21.4333 30.225 21.0833 31.375 20.85C32.525 20.6167 33.7333 20.5 35 20.5C35.8667 20.5 36.7167 20.5667 37.55 20.7C38.3833 20.8333 39.2 21 40 21.2V24.4C39.2 24.1 38.3917 23.875 37.575 23.725C36.7583 23.575 35.9 23.5 35 23.5C33.7333 23.5 32.5167 23.6583 31.35 23.975C30.1833 24.2917 29.0667 24.7333 28 25.3ZM13 32C14.5667 32 16.0917 32.175 17.575 32.525C19.0583 32.875 20.5333 33.4 22 34.1V14.4C20.6333 13.6 19.1833 13 17.65 12.6C16.1167 12.2 14.5667 12 13 12C11.8 12 10.6083 12.1167 9.425 12.35C8.24167 12.5833 7.1 12.9333 6 13.4V33.2C7.16667 32.8 8.325 32.5 9.475 32.3C10.625 32.1 11.8 32 13 32ZM26 34.1C27.4667 33.4 28.9417 32.875 30.425 32.525C31.9083 32.175 33.4333 32 35 32C36.2 32 37.375 32.1 38.525 32.3C39.675 32.5 40.8333 32.8 42 33.2V13.4C40.9 12.9333 39.7583 12.5833 38.575 12.35C37.3917 12.1167 36.2 12 35 12C33.4333 12 31.8833 12.2 30.35 12.6C28.8167 13 27.3667 13.6 26 14.4V34.1ZM24 40C22.4 38.7333 20.6667 37.75 18.8 37.05C16.9333 36.35 15 36 13 36C11.6 36 10.225 36.1833 8.875 36.55C7.525 36.9167 6.23333 37.4333 5 38.1C4.3 38.4667 3.625 38.45 2.975 38.05C2.325 37.65 2 37.0667 2 36.3V12.2C2 11.8333 2.09167 11.4833 2.275 11.15C2.45833 10.8167 2.73333 10.5667 3.1 10.4C4.63333 9.6 6.23333 9 7.9 8.6C9.56667 8.2 11.2667 8 13 8C14.9333 8 16.825 8.25 18.675 8.75C20.525 9.25 22.3 10 24 11C25.7 10 27.475 9.25 29.325 8.75C31.175 8.25 33.0667 8 35 8C36.7333 8 38.4333 8.2 40.1 8.6C41.7667 9 43.3667 9.6 44.9 10.4C45.2667 10.5667 45.5417 10.8167 45.725 11.15C45.9083 11.4833 46 11.8333 46 12.2V36.3C46 37.0667 45.675 37.65 45.025 38.05C44.375 38.45 43.7 38.4667 43 38.1C41.7667 37.4333 40.475 36.9167 39.125 36.55C37.775 36.1833 36.4 36 35 36C33 36 31.0667 36.35 29.2 37.05C27.3333 37.75 25.6 38.7333 24 40Z" fill="#6A61DB"/>
</g>
</svg>
