<svg width="25" height="25" viewBox="0 0 25 25" fill="none" xmlns="http://www.w3.org/2000/svg">
<mask id="mask0_6_59" style="mask-type:alpha" maskUnits="userSpaceOnUse" x="0" y="0" width="25" height="25">
<rect width="25" height="25" fill="#D9D9D9"/>
</mask>
<g mask="url(#mask0_6_59)">
<path d="M20.4167 21.255L13.8542 14.6989C13.3333 15.1152 12.7344 15.4447 12.0573 15.6875C11.3802 15.9303 10.6597 16.0518 9.89583 16.0518C8.00347 16.0518 6.40191 15.397 5.09115 14.0875C3.78038 12.778 3.125 11.178 3.125 9.28754C3.125 7.39702 3.78038 5.79703 5.09115 4.48754C6.40191 3.17806 8.00347 2.52332 9.89583 2.52332C11.7882 2.52332 13.3898 3.17806 14.7005 4.48754C16.0113 5.79703 16.6667 7.39702 16.6667 9.28754C16.6667 10.0507 16.5451 10.7705 16.3021 11.4469C16.059 12.1233 15.7292 12.7217 15.3125 13.242L21.875 19.7981L20.4167 21.255ZM9.89583 13.9705C11.1979 13.9705 12.3047 13.5152 13.2161 12.6046C14.1276 11.694 14.5833 10.5883 14.5833 9.28754C14.5833 7.98672 14.1276 6.88103 13.2161 5.97047C12.3047 5.0599 11.1979 4.60461 9.89583 4.60461C8.59375 4.60461 7.48698 5.0599 6.57552 5.97047C5.66406 6.88103 5.20833 7.98672 5.20833 9.28754C5.20833 10.5883 5.66406 11.694 6.57552 12.6046C7.48698 13.5152 8.59375 13.9705 9.89583 13.9705Z" fill="#1C1B1F"/>
</g>
</svg>
